<svg width="25" height="24" viewBox="0 0 25 24" fill="none" xmlns="http://www.w3.org/2000/svg">
<path d="M20.5159 10.999H22.5159C22.5159 5.869 18.6429 2 13.5059 2V4C17.5679 4 20.5159 6.943 20.5159 10.999Z" fill="white"/>
<path d="M13.5159 8.00024C15.6189 8.00024 16.5159 8.89724 16.5159 11.0002H18.5159C18.5159 7.77524 16.7409 6.00024 13.5159 6.00024V8.00024ZM16.9379 13.4432C16.7458 13.2686 16.4933 13.1754 16.2337 13.1835C15.9742 13.1915 15.7279 13.3001 15.5469 13.4862L13.1539 15.9472C12.5779 15.8372 11.4199 15.4762 10.2279 14.2872C9.03591 13.0942 8.67491 11.9332 8.56791 11.3612L11.0269 8.96724C11.2133 8.78637 11.322 8.54006 11.3301 8.28045C11.3381 8.02083 11.2448 7.76828 11.0699 7.57624L7.37491 3.51324C7.19995 3.3206 6.95679 3.20374 6.69706 3.1875C6.43733 3.17125 6.1815 3.2569 5.98391 3.42624L3.81391 5.28724C3.64102 5.46075 3.53783 5.69169 3.52391 5.93624C3.50891 6.18624 3.22291 12.1082 7.81491 16.7022C11.8209 20.7072 16.8389 21.0002 18.2209 21.0002C18.4229 21.0002 18.5469 20.9942 18.5799 20.9922C18.8244 20.9786 19.0552 20.8749 19.2279 20.7012L21.0879 18.5302C21.2574 18.3328 21.3432 18.077 21.3271 17.8173C21.3111 17.5576 21.1944 17.3143 21.0019 17.1392L16.9379 13.4432Z" fill="white"/>
</svg>
