<svg width="20" height="20" viewBox="0 0 20 20" fill="none" xmlns="http://www.w3.org/2000/svg">
<path d="M6.66699 4.7915C6.32533 4.7915 6.04199 4.50817 6.04199 4.1665V1.6665C6.04199 1.32484 6.32533 1.0415 6.66699 1.0415C7.00866 1.0415 7.29199 1.32484 7.29199 1.6665V4.1665C7.29199 4.50817 7.00866 4.7915 6.66699 4.7915Z" fill="#333333"/>
<path d="M13.333 4.7915C12.9913 4.7915 12.708 4.50817 12.708 4.1665V1.6665C12.708 1.32484 12.9913 1.0415 13.333 1.0415C13.6747 1.0415 13.958 1.32484 13.958 1.6665V4.1665C13.958 4.50817 13.6747 4.7915 13.333 4.7915Z" fill="#333333"/>
<path d="M7.08333 12.0834C6.975 12.0834 6.86667 12.0584 6.76667 12.0168C6.65833 11.9751 6.575 11.9168 6.49167 11.8418C6.34167 11.6834 6.25 11.4751 6.25 11.2501C6.25 11.1418 6.275 11.0334 6.31667 10.9334C6.35833 10.8334 6.41667 10.7418 6.49167 10.6584C6.575 10.5834 6.65833 10.5251 6.76667 10.4834C7.06667 10.3584 7.44167 10.4251 7.675 10.6584C7.825 10.8168 7.91667 11.0334 7.91667 11.2501C7.91667 11.3001 7.90833 11.3584 7.9 11.4168C7.89167 11.4668 7.875 11.5168 7.85 11.5668C7.83333 11.6168 7.80833 11.6668 7.775 11.7168C7.75 11.7584 7.70833 11.8001 7.675 11.8418C7.51667 11.9918 7.3 12.0834 7.08333 12.0834Z" fill="#333333"/>
<path d="M10.0003 12.0832C9.89199 12.0832 9.78366 12.0582 9.68366 12.0166C9.57533 11.9749 9.49199 11.9166 9.40866 11.8416C9.25866 11.6832 9.16699 11.4749 9.16699 11.2499C9.16699 11.1416 9.19199 11.0332 9.23366 10.9332C9.27533 10.8332 9.33366 10.7416 9.40866 10.6582C9.49199 10.5832 9.57533 10.5249 9.68366 10.4832C9.98366 10.3499 10.3587 10.4249 10.592 10.6582C10.742 10.8166 10.8337 11.0332 10.8337 11.2499C10.8337 11.2999 10.8253 11.3582 10.817 11.4166C10.8087 11.4666 10.792 11.5166 10.767 11.5666C10.7503 11.6166 10.7253 11.6666 10.692 11.7166C10.667 11.7582 10.6253 11.7999 10.592 11.8416C10.4337 11.9916 10.217 12.0832 10.0003 12.0832Z" fill="#333333"/>
<path d="M12.9163 12.0832C12.808 12.0832 12.6997 12.0582 12.5997 12.0166C12.4913 11.9749 12.408 11.9166 12.3247 11.8416C12.2913 11.7999 12.258 11.7582 12.2247 11.7166C12.1913 11.6666 12.1663 11.6166 12.1497 11.5666C12.1247 11.5166 12.108 11.4666 12.0997 11.4166C12.0913 11.3582 12.083 11.2999 12.083 11.2499C12.083 11.0332 12.1747 10.8166 12.3247 10.6582C12.408 10.5832 12.4913 10.5249 12.5997 10.4832C12.908 10.3499 13.2747 10.4249 13.508 10.6582C13.658 10.8166 13.7497 11.0332 13.7497 11.2499C13.7497 11.2999 13.7413 11.3582 13.733 11.4166C13.7247 11.4666 13.708 11.5166 13.683 11.5666C13.6663 11.6166 13.6413 11.6666 13.608 11.7166C13.583 11.7582 13.5413 11.7999 13.508 11.8416C13.3497 11.9916 13.133 12.0832 12.9163 12.0832Z" fill="#333333"/>
<path d="M7.08333 14.9999C6.975 14.9999 6.86667 14.975 6.76667 14.9333C6.66667 14.8917 6.575 14.8332 6.49167 14.7582C6.34167 14.5999 6.25 14.3832 6.25 14.1666C6.25 14.0582 6.275 13.9499 6.31667 13.8499C6.35833 13.7416 6.41667 13.65 6.49167 13.575C6.8 13.2667 7.36667 13.2667 7.675 13.575C7.825 13.7333 7.91667 13.9499 7.91667 14.1666C7.91667 14.3832 7.825 14.5999 7.675 14.7582C7.51667 14.9082 7.3 14.9999 7.08333 14.9999Z" fill="#333333"/>
<path d="M10.0003 14.9999C9.78366 14.9999 9.56699 14.9082 9.40866 14.7582C9.25866 14.5999 9.16699 14.3832 9.16699 14.1666C9.16699 14.0582 9.19199 13.9499 9.23366 13.8499C9.27533 13.7416 9.33366 13.65 9.40866 13.575C9.71699 13.2667 10.2837 13.2667 10.592 13.575C10.667 13.65 10.7253 13.7416 10.767 13.8499C10.8087 13.9499 10.8337 14.0582 10.8337 14.1666C10.8337 14.3832 10.742 14.5999 10.592 14.7582C10.4337 14.9082 10.217 14.9999 10.0003 14.9999Z" fill="#333333"/>
<path d="M12.9163 14.9999C12.6997 14.9999 12.483 14.9083 12.3247 14.7583C12.2497 14.6833 12.1913 14.5916 12.1497 14.4833C12.108 14.3833 12.083 14.2749 12.083 14.1666C12.083 14.0583 12.108 13.9499 12.1497 13.8499C12.1913 13.7416 12.2497 13.6499 12.3247 13.5749C12.5163 13.3833 12.808 13.2916 13.0747 13.3499C13.133 13.3583 13.183 13.3749 13.233 13.3999C13.283 13.4166 13.333 13.4416 13.383 13.4749C13.4247 13.4999 13.4663 13.5416 13.508 13.5749C13.658 13.7333 13.7497 13.9499 13.7497 14.1666C13.7497 14.3833 13.658 14.5999 13.508 14.7583C13.3497 14.9083 13.133 14.9999 12.9163 14.9999Z" fill="#333333"/>
<path d="M17.0837 8.19971H2.91699C2.57533 8.19971 2.29199 7.91637 2.29199 7.57471C2.29199 7.23304 2.57533 6.94971 2.91699 6.94971H17.0837C17.4253 6.94971 17.7087 7.23304 17.7087 7.57471C17.7087 7.91637 17.4253 8.19971 17.0837 8.19971Z" fill="#333333"/>
<path d="M13.3333 18.9582H6.66667C3.625 18.9582 1.875 17.2082 1.875 14.1665V7.08317C1.875 4.0415 3.625 2.2915 6.66667 2.2915H13.3333C16.375 2.2915 18.125 4.0415 18.125 7.08317V14.1665C18.125 17.2082 16.375 18.9582 13.3333 18.9582ZM6.66667 3.5415C4.28333 3.5415 3.125 4.69984 3.125 7.08317V14.1665C3.125 16.5498 4.28333 17.7082 6.66667 17.7082H13.3333C15.7167 17.7082 16.875 16.5498 16.875 14.1665V7.08317C16.875 4.69984 15.7167 3.5415 13.3333 3.5415H6.66667Z" fill="#333333"/>
</svg>
