<svg width="20" height="20" viewBox="0 0 20 20" fill="none" xmlns="http://www.w3.org/2000/svg">
<path d="M6.66699 4.79199C6.32533 4.79199 6.04199 4.50866 6.04199 4.16699V1.66699C6.04199 1.32533 6.32533 1.04199 6.66699 1.04199C7.00866 1.04199 7.29199 1.32533 7.29199 1.66699V4.16699C7.29199 4.50866 7.00866 4.79199 6.66699 4.79199Z" fill="white"/>
<path d="M13.333 4.79199C12.9913 4.79199 12.708 4.50866 12.708 4.16699V1.66699C12.708 1.32533 12.9913 1.04199 13.333 1.04199C13.6747 1.04199 13.958 1.32533 13.958 1.66699V4.16699C13.958 4.50866 13.6747 4.79199 13.333 4.79199Z" fill="white"/>
<path d="M7.08333 12.0839C6.975 12.0839 6.86667 12.0589 6.76667 12.0172C6.65833 11.9756 6.575 11.9172 6.49167 11.8422C6.34167 11.6839 6.25 11.4756 6.25 11.2506C6.25 11.1422 6.275 11.0339 6.31667 10.9339C6.35833 10.8339 6.41667 10.7422 6.49167 10.6589C6.575 10.5839 6.65833 10.5256 6.76667 10.4839C7.06667 10.3589 7.44167 10.4256 7.675 10.6589C7.825 10.8172 7.91667 11.0339 7.91667 11.2506C7.91667 11.3006 7.90833 11.3589 7.9 11.4172C7.89167 11.4672 7.875 11.5172 7.85 11.5672C7.83333 11.6172 7.80833 11.6672 7.775 11.7172C7.75 11.7589 7.70833 11.8006 7.675 11.8422C7.51667 11.9922 7.3 12.0839 7.08333 12.0839Z" fill="white"/>
<path d="M10.0003 12.0837C9.89199 12.0837 9.78366 12.0587 9.68366 12.017C9.57533 11.9754 9.49199 11.917 9.40866 11.842C9.25866 11.6837 9.16699 11.4754 9.16699 11.2504C9.16699 11.142 9.19199 11.0337 9.23366 10.9337C9.27533 10.8337 9.33366 10.742 9.40866 10.6587C9.49199 10.5837 9.57533 10.5254 9.68366 10.4837C9.98366 10.3504 10.3587 10.4254 10.592 10.6587C10.742 10.817 10.8337 11.0337 10.8337 11.2504C10.8337 11.3004 10.8253 11.3587 10.817 11.417C10.8087 11.467 10.792 11.517 10.767 11.567C10.7503 11.617 10.7253 11.667 10.692 11.717C10.667 11.7587 10.6253 11.8004 10.592 11.842C10.4337 11.992 10.217 12.0837 10.0003 12.0837Z" fill="white"/>
<path d="M12.9163 12.0837C12.808 12.0837 12.6997 12.0587 12.5997 12.017C12.4913 11.9754 12.408 11.917 12.3247 11.842C12.2913 11.8004 12.258 11.7587 12.2247 11.717C12.1913 11.667 12.1663 11.617 12.1497 11.567C12.1247 11.517 12.108 11.467 12.0997 11.417C12.0913 11.3587 12.083 11.3004 12.083 11.2504C12.083 11.0337 12.1747 10.817 12.3247 10.6587C12.408 10.5837 12.4913 10.5254 12.5997 10.4837C12.908 10.3504 13.2747 10.4254 13.508 10.6587C13.658 10.817 13.7497 11.0337 13.7497 11.2504C13.7497 11.3004 13.7413 11.3587 13.733 11.417C13.7247 11.467 13.708 11.517 13.683 11.567C13.6663 11.617 13.6413 11.667 13.608 11.717C13.583 11.7587 13.5413 11.8004 13.508 11.842C13.3497 11.992 13.133 12.0837 12.9163 12.0837Z" fill="white"/>
<path d="M7.08333 14.9999C6.975 14.9999 6.86667 14.975 6.76667 14.9333C6.66667 14.8917 6.575 14.8332 6.49167 14.7582C6.34167 14.5999 6.25 14.3832 6.25 14.1666C6.25 14.0582 6.275 13.9499 6.31667 13.8499C6.35833 13.7416 6.41667 13.65 6.49167 13.575C6.8 13.2667 7.36667 13.2667 7.675 13.575C7.825 13.7333 7.91667 13.9499 7.91667 14.1666C7.91667 14.3832 7.825 14.5999 7.675 14.7582C7.51667 14.9082 7.3 14.9999 7.08333 14.9999Z" fill="white"/>
<path d="M10.0003 14.9999C9.78366 14.9999 9.56699 14.9082 9.40866 14.7582C9.25866 14.5999 9.16699 14.3832 9.16699 14.1666C9.16699 14.0582 9.19199 13.9499 9.23366 13.8499C9.27533 13.7416 9.33366 13.65 9.40866 13.575C9.71699 13.2667 10.2837 13.2667 10.592 13.575C10.667 13.65 10.7253 13.7416 10.767 13.8499C10.8087 13.9499 10.8337 14.0582 10.8337 14.1666C10.8337 14.3832 10.742 14.5999 10.592 14.7582C10.4337 14.9082 10.217 14.9999 10.0003 14.9999Z" fill="white"/>
<path d="M12.9163 15.0004C12.6997 15.0004 12.483 14.9087 12.3247 14.7587C12.2497 14.6837 12.1913 14.5921 12.1497 14.4837C12.108 14.3837 12.083 14.2754 12.083 14.1671C12.083 14.0587 12.108 13.9504 12.1497 13.8504C12.1913 13.7421 12.2497 13.6504 12.3247 13.5754C12.5163 13.3837 12.808 13.2921 13.0747 13.3504C13.133 13.3587 13.183 13.3754 13.233 13.4004C13.283 13.4171 13.333 13.4421 13.383 13.4754C13.4247 13.5004 13.4663 13.5421 13.508 13.5754C13.658 13.7337 13.7497 13.9504 13.7497 14.1671C13.7497 14.3837 13.658 14.6004 13.508 14.7587C13.3497 14.9087 13.133 15.0004 12.9163 15.0004Z" fill="white"/>
<path d="M17.0837 8.2002H2.91699C2.57533 8.2002 2.29199 7.91686 2.29199 7.5752C2.29199 7.23353 2.57533 6.9502 2.91699 6.9502H17.0837C17.4253 6.9502 17.7087 7.23353 17.7087 7.5752C17.7087 7.91686 17.4253 8.2002 17.0837 8.2002Z" fill="white"/>
<path d="M13.3333 18.9587H6.66667C3.625 18.9587 1.875 17.2087 1.875 14.167V7.08366C1.875 4.04199 3.625 2.29199 6.66667 2.29199H13.3333C16.375 2.29199 18.125 4.04199 18.125 7.08366V14.167C18.125 17.2087 16.375 18.9587 13.3333 18.9587ZM6.66667 3.54199C4.28333 3.54199 3.125 4.70033 3.125 7.08366V14.167C3.125 16.5503 4.28333 17.7087 6.66667 17.7087H13.3333C15.7167 17.7087 16.875 16.5503 16.875 14.167V7.08366C16.875 4.70033 15.7167 3.54199 13.3333 3.54199H6.66667Z" fill="white"/>
</svg>
