<svg width="25" height="24" viewBox="0 0 25 24" fill="none" xmlns="http://www.w3.org/2000/svg">
<path d="M12.5156 1.5C10.3284 1.50258 8.23147 2.3726 6.68485 3.91922C5.13824 5.46584 4.26821 7.56276 4.26563 9.75C4.26301 11.5374 4.84687 13.2763 5.92763 14.7C5.92763 14.7 6.15263 14.9963 6.18938 15.039L12.5156 22.5L18.8449 15.0353C18.8779 14.9955 19.1036 14.7 19.1036 14.7L19.1044 14.6978C20.1846 13.2747 20.7682 11.5366 20.7656 9.75C20.7631 7.56276 19.893 5.46584 18.3464 3.91922C16.7998 2.3726 14.7029 1.50258 12.5156 1.5ZM12.5156 12.75C11.9223 12.75 11.3423 12.5741 10.8489 12.2444C10.3556 11.9148 9.97106 11.4462 9.744 10.8981C9.51693 10.3499 9.45752 9.74667 9.57328 9.16473C9.68903 8.58279 9.97476 8.04824 10.3943 7.62868C10.8139 7.20912 11.3484 6.9234 11.9304 6.80764C12.5123 6.69189 13.1155 6.7513 13.6637 6.97836C14.2119 7.20542 14.6804 7.58994 15.01 8.08329C15.3397 8.57664 15.5156 9.15666 15.5156 9.75C15.5146 10.5453 15.1983 11.3078 14.6359 11.8702C14.0735 12.4326 13.311 12.749 12.5156 12.75Z" fill="white"/>
</svg>
