<svg width="17" height="17" viewBox="0 0 17 17" fill="none" xmlns="http://www.w3.org/2000/svg">
<path d="M8.32421 15.708C12.3051 15.708 15.5322 12.4809 15.5322 8.49999C15.5322 4.51912 12.3051 1.29199 8.32421 1.29199C4.34334 1.29199 1.11621 4.51912 1.11621 8.49999C1.11621 12.4809 4.34334 15.708 8.32421 15.708Z" fill="white"/>
<path d="M8.31621 1.29199C6.89219 1.29199 5.50014 1.71426 4.31611 2.50541C3.13207 3.29656 2.20923 4.42104 1.66428 5.73667C1.11933 7.0523 0.976747 8.49998 1.25456 9.89664C1.53237 11.2933 2.21811 12.5762 3.22505 13.5832C4.23198 14.5901 5.5149 15.2758 6.91156 15.5536C8.30823 15.8315 9.75591 15.6889 11.0715 15.1439C12.3872 14.599 13.5116 13.6761 14.3028 12.4921C15.0939 11.3081 15.5162 9.91602 15.5162 8.49199C15.5162 6.58243 14.7576 4.75109 13.4074 3.40082C12.0571 2.05056 10.2258 1.29199 8.31621 1.29199ZM11.7002 6.45999L8.14821 11.388C8.04241 11.5308 7.888 11.63 7.71411 11.6669C7.54022 11.7037 7.35885 11.6757 7.20421 11.588L5.16421 10.396C4.99872 10.2963 4.87962 10.1349 4.83311 9.94736C4.7866 9.75982 4.81649 9.56149 4.91621 9.39599C5.01594 9.2305 5.17732 9.11139 5.36485 9.06489C5.55239 9.01838 5.75072 9.04827 5.91621 9.14799L7.36421 10.012L10.5642 5.61999C10.683 5.50101 10.8396 5.42734 11.007 5.41175C11.1744 5.39616 11.342 5.43963 11.4807 5.53462C11.6194 5.62962 11.7204 5.77015 11.7664 5.93186C11.8123 6.09357 11.8002 6.26626 11.7322 6.41999L11.7002 6.45999Z" fill="#6D758F"/>
</svg>
