<svg width="32" height="33" viewBox="0 0 32 33" fill="none" xmlns="http://www.w3.org/2000/svg">
<rect width="32" height="32" transform="translate(0 0.5)" fill="#F1F3F7"/>
<path fill-rule="evenodd" clip-rule="evenodd" d="M16 11.3801C14.8834 11.3801 13.9782 12.2853 13.9782 13.4018C13.9782 14.5184 14.8834 15.4236 16 15.4236C17.1166 15.4236 18.0217 14.5184 18.0217 13.4018C18.0217 12.2853 17.1166 11.3801 16 11.3801ZM12.9873 13.4018C12.9873 11.738 14.3361 10.3892 16 10.3892C17.6639 10.3892 19.0127 11.738 19.0127 13.4018C19.0127 15.0657 17.6639 16.4145 16 16.4145C14.3361 16.4145 12.9873 15.0657 12.9873 13.4018Z" fill="#6D758F"/>
<path fill-rule="evenodd" clip-rule="evenodd" d="M12.2207 18.4541C13.1261 17.9136 14.3512 17.5536 16.0001 17.5536C17.649 17.5536 18.874 17.9136 19.7795 18.4541C20.6853 18.9948 21.2423 19.6988 21.5817 20.3414L21.5817 20.3414C21.8854 20.9165 21.786 21.5131 21.4413 21.946C21.1098 22.3623 20.5701 22.6108 19.9908 22.6108H12.0093C11.43 22.6108 10.8903 22.3623 10.5588 21.946C10.2141 21.5131 10.1148 20.9164 10.4185 20.3414C10.7578 19.6988 11.3148 18.9948 12.2207 18.4541ZM12.7286 19.305C12.0023 19.7385 11.5629 20.2963 11.2947 20.8042L11.2947 20.8042C11.1854 21.0111 11.2202 21.1858 11.334 21.3287C11.4609 21.4881 11.7042 21.6199 12.0093 21.6199H19.9908C20.296 21.6199 20.5392 21.4881 20.6661 21.3287C20.78 21.1857 20.8147 21.0111 20.7055 20.8042C20.4372 20.2963 19.9979 19.7385 19.2716 19.305C18.5448 18.8712 17.5019 18.5445 16.0001 18.5445C14.4982 18.5445 13.4553 18.8712 12.7286 19.305Z" fill="#6D758F"/>
</svg>
