<svg width="49" height="48" viewBox="0 0 49 48" fill="none" xmlns="http://www.w3.org/2000/svg">
<rect width="48" height="48" transform="translate(0.5)" fill="#CBBC87"/>
<path fill-rule="evenodd" clip-rule="evenodd" d="M24.5005 16.3201C22.8256 16.3201 21.4679 17.6779 21.4679 19.3528C21.4679 21.0276 22.8256 22.3854 24.5005 22.3854C26.1754 22.3854 27.5331 21.0276 27.5331 19.3528C27.5331 17.6779 26.1754 16.3201 24.5005 16.3201ZM19.9814 19.3528C19.9814 16.857 22.0047 14.8337 24.5005 14.8337C26.9963 14.8337 29.0195 16.857 29.0195 19.3528C29.0195 21.8486 26.9963 23.8718 24.5005 23.8718C22.0047 23.8718 19.9814 21.8486 19.9814 19.3528Z" fill="white"/>
<path fill-rule="evenodd" clip-rule="evenodd" d="M18.8315 26.9313C20.1897 26.1206 22.0272 25.5806 24.5006 25.5806C26.974 25.5806 28.8115 26.1206 30.1697 26.9313C31.5284 27.7424 32.364 28.7984 32.873 29.7622L32.873 29.7623C33.3286 30.6249 33.1795 31.5199 32.6625 32.1691C32.1652 32.7936 31.3557 33.1664 30.4867 33.1664H18.5144C17.6455 33.1664 16.836 32.7936 16.3387 32.1691C15.8217 31.5198 15.6726 30.6249 16.1282 29.7623C16.6372 28.7985 17.4728 27.7424 18.8315 26.9313ZM19.5934 28.2076C18.5039 28.8579 17.8449 29.6946 17.4426 30.4564L17.4426 30.4564C17.2786 30.7669 17.3308 31.0288 17.5015 31.2432C17.6919 31.4823 18.0567 31.68 18.5144 31.68H30.4867C30.9444 31.68 31.3093 31.4823 31.4997 31.2432C31.6704 31.0288 31.7226 30.7669 31.5587 30.4564C31.1563 29.6946 30.4973 28.8579 29.4078 28.2076C28.3178 27.5569 26.7534 27.067 24.5006 27.067C22.2478 27.067 20.6834 27.5569 19.5934 28.2076Z" fill="white"/>
</svg>
