<svg width="97" height="26" viewBox="0 0 97 26" fill="none" xmlns="http://www.w3.org/2000/svg">
<path fill-rule="evenodd" clip-rule="evenodd" d="M52.0818 10.4999C48.8522 10.5117 47.625 14.1817 47.6421 16.6597C47.658 19.0176 48.8324 22.6798 52.1095 22.6942C55.2862 22.7072 56.6854 18.9641 56.6444 16.2511C56.6021 13.572 55.1844 10.4921 52.0818 10.4999ZM60.8407 16.4247C60.8407 21.6693 57.7183 25.6722 52.0857 25.6722C46.6516 25.6722 43.5371 21.7946 43.5371 16.6937C43.5371 11.6554 46.805 7.48923 52.0064 7.4592C57.5688 7.42656 60.8407 11.1488 60.8407 16.4247Z" fill="#737373"/>
<path fill-rule="evenodd" clip-rule="evenodd" d="M19.183 5.38314C17.5722 4.04491 14.6997 4.03055 12.8178 4.41047V12.8746C15.6096 13.342 18.7056 12.9713 19.9183 10.5964C20.7554 8.95395 20.6457 6.59865 19.183 5.38314ZM19.2147 15.6177C17.3553 16.2366 14.459 16.4141 12.8178 16.029V25.3H8.8252V1.48986C11.9265 1.02115 15.275 0.754808 18.4464 1.29924C22.0806 1.92332 24.5193 4.4392 24.514 8.19148C24.5087 11.6422 22.6995 14.4609 19.2147 15.6177Z" fill="#737373"/>
<path fill-rule="evenodd" clip-rule="evenodd" d="M5.35785 7.83398V25.3002H1.36523V7.83398H5.35785Z" fill="#737373"/>
<path fill-rule="evenodd" clip-rule="evenodd" d="M5.342 4.29793C4.8659 4.8959 4.12133 5.21577 3.37677 5.23405C2.58459 5.25232 1.79242 4.92593 1.3269 4.22743C0.770125 3.39316 0.734417 2.16981 1.3626 1.36557C1.82416 0.775439 2.5555 0.476457 3.2961 0.463402C4.0605 0.44904 4.83416 0.737576 5.3301 1.31595C6.03499 2.13456 6.00854 3.46105 5.342 4.29793Z" fill="#737373"/>
<path fill-rule="evenodd" clip-rule="evenodd" d="M92.2633 14.7327C92.2633 13.5629 91.8203 11.9753 90.8178 11.1345C89.502 10.0312 87.427 10.1318 86.1005 11.2037C85.106 12.0066 84.3984 13.4375 84.4209 14.7327H92.2633ZM96.0576 17.5711H84.4209C84.4209 20.4825 86.041 22.3456 89.1912 22.5467C90.8324 22.6511 92.9127 22.2973 94.4865 21.7202L95.1887 24.522C93.693 25.3446 91.1405 25.6475 89.2295 25.6435C83.9369 25.6357 80.3701 22.4357 80.3701 16.8164C80.3701 13.5955 81.5207 10.624 83.9038 8.90451C86.525 7.0114 90.8443 6.88737 93.3901 8.98546C95.4201 10.6592 96.1766 13.4885 96.0946 16.2537L96.0576 17.5711Z" fill="#737373"/>
<path fill-rule="evenodd" clip-rule="evenodd" d="M37.4909 14.9647C37.4909 12.4554 36.1935 10.792 34.0564 10.792C32.8132 10.792 30.1577 11.4174 30.1577 15.7481V25.262H26.2166L26.165 0H30.1577V10.3142C31.2857 8.46156 33.132 7.54112 35.3366 7.54112C39.6228 7.54112 41.4835 10.4408 41.4835 14.8041V25.2998H37.4909V14.9647Z" fill="#737373"/>
<path fill-rule="evenodd" clip-rule="evenodd" d="M74.305 15.1148C74.305 12.6668 73.251 10.7919 70.8401 10.7919C69.7741 10.7919 67.4095 11.4369 67.0022 14.7923V25.2997H63.0096C62.9884 19.4911 63.0056 13.6421 62.8535 7.83347H66.4243C66.5142 8.71344 66.575 9.59341 66.6081 10.4734C67.8221 8.47321 69.8786 7.54102 72.1189 7.54102C76.0243 7.54102 78.2963 10.2149 78.2963 14.3523V25.2997H74.3037V15.1148H74.305Z" fill="#737373"/>
</svg>
