<svg width="31" height="30" viewBox="0 0 31 30" fill="none" xmlns="http://www.w3.org/2000/svg">
<circle cx="15.5156" cy="15" r="15" fill="#1B1B1B"/>
<path d="M20.5089 10.4255C19.984 10.6598 19.4129 10.8284 18.8245 10.8941C19.4354 10.5185 19.8928 9.92521 20.111 9.22545C19.5378 9.57833 18.9099 9.82578 18.2551 9.95681C17.9814 9.65402 17.6504 9.4128 17.2827 9.24819C16.915 9.08357 16.5185 8.99909 16.1179 9.00001C14.497 9.00001 13.1934 10.3598 13.1934 12.0284C13.1934 12.2627 13.2208 12.497 13.2654 12.7225C10.8383 12.5911 8.6737 11.3911 7.2346 9.55385C6.97238 10.0174 6.83497 10.5451 6.83666 11.0823C6.83666 12.1331 7.35295 13.0598 8.14025 13.6047C7.67629 13.5858 7.22318 13.4538 6.8178 13.2195V13.2568C6.8178 14.7284 7.82293 15.9479 9.16254 16.2284C8.91101 16.296 8.65227 16.3306 8.39239 16.3314C8.202 16.3314 8.0219 16.3118 7.84008 16.2852C8.21058 17.4852 9.28947 18.3568 10.5742 18.3852C9.56905 19.2 8.31006 19.6793 6.94301 19.6793C6.69773 19.6793 6.47132 19.6704 6.23633 19.642C7.53306 20.503 9.07163 21 10.7286 21C16.1076 21 19.0509 16.3882 19.0509 12.3852C19.0509 12.2539 19.0509 12.1225 19.0424 11.9911C19.6118 11.5598 20.111 11.0254 20.5089 10.4255Z" fill="white"/>
</svg>
