<svg width="16" height="16" viewBox="0 0 16 16" fill="none" xmlns="http://www.w3.org/2000/svg">
<path d="M8.00027 15.655C7.88664 15.655 2.58379 15.655 2.58379 15.655C2.24121 15.655 1.95559 15.4948 1.81969 15.2266C1.68383 14.9583 1.72375 14.6332 1.92648 14.357L2.60723 13.4323C1.16383 11.9988 0.345703 10.0481 0.345703 8.00035C0.345703 3.77957 3.77953 0.345703 8.00027 0.345703C12.2211 0.345703 15.655 3.77957 15.655 8.00035C15.655 12.2212 12.2211 15.655 8.00027 15.655ZM8.00027 14.4831C11.5749 14.4831 14.4831 11.575 14.4831 8.00035C14.4831 4.42574 11.5749 1.51758 8.00027 1.51758C4.4257 1.51758 1.51758 4.42574 1.51758 8.00035C1.51758 9.88887 2.33922 11.6799 3.77184 12.9143L4.18293 13.2684L3.28879 14.4831H8.00027Z" fill="white"/>
<path d="M5.9593 8.00023C5.9593 8.45062 5.59422 8.81578 5.14379 8.81578C4.69328 8.81578 4.32812 8.45062 4.32812 8.00023C4.32812 7.54973 4.69328 7.18457 5.14379 7.18457C5.59422 7.18457 5.9593 7.54977 5.9593 8.00023Z" fill="white"/>
<path d="M8.00012 8.81566C8.45053 8.81566 8.81566 8.45053 8.81566 8.00012C8.81566 7.5497 8.45053 7.18457 8.00012 7.18457C7.5497 7.18457 7.18457 7.5497 7.18457 8.00012C7.18457 8.45053 7.5497 8.81566 8.00012 8.81566Z" fill="white"/>
<path d="M10.8566 8.81574C11.307 8.81574 11.6722 8.45059 11.6722 8.00016C11.6722 7.54972 11.307 7.18457 10.8566 7.18457C10.4062 7.18457 10.041 7.54972 10.041 8.00016C10.041 8.45059 10.4062 8.81574 10.8566 8.81574Z" fill="white"/>
</svg>
