<svg width="30" height="30" viewBox="0 0 30 30" fill="none" xmlns="http://www.w3.org/2000/svg">
<circle cx="15" cy="15" r="15" fill="white"/>
<path fill-rule="evenodd" clip-rule="evenodd" d="M11.1942 8.045C11.9552 8.00818 12.1978 8 14.1363 8C16.0748 8 16.3174 8.00886 17.0777 8.045C17.8381 8.08114 18.3571 8.20864 18.8112 8.39341C19.2867 8.58227 19.7182 8.8775 20.075 9.25932C20.4383 9.63364 20.7185 10.0864 20.8976 10.5868C21.0741 11.0641 21.1947 11.6095 21.2298 12.4073C21.2648 13.2084 21.2726 13.4634 21.2726 15.5C21.2726 17.5373 21.2641 17.7923 21.2298 18.592C21.1954 19.3898 21.0741 19.9352 20.8976 20.4125C20.7185 20.913 20.4378 21.3665 20.075 21.7414C19.7182 22.1232 19.2867 22.4177 18.8112 22.6059C18.3571 22.7914 17.8381 22.9182 17.079 22.955C16.3174 22.9918 16.0748 23 14.1363 23C12.1978 23 11.9552 22.9911 11.1942 22.955C10.4351 22.9189 9.91615 22.7914 9.46202 22.6059C8.98578 22.4177 8.5543 22.1227 8.1976 21.7414C7.83454 21.3668 7.55359 20.9136 7.37433 20.4132C7.19852 19.9359 7.07785 19.3905 7.04282 18.5927C7.00779 17.7916 7 17.5366 7 15.5C7 13.4627 7.00843 13.2077 7.04282 12.4086C7.0772 11.6095 7.19852 11.0641 7.37433 10.5868C7.55386 10.0864 7.83502 9.63317 8.19825 9.25864C8.55444 8.87716 8.98549 8.58189 9.46137 8.39341C9.9155 8.20864 10.4345 8.08182 11.1935 8.045H11.1942ZM17.02 9.395C16.2674 9.35886 16.0417 9.35136 14.1363 9.35136C12.2309 9.35136 12.0051 9.35886 11.2526 9.395C10.5565 9.42841 10.1789 9.55045 9.92718 9.65341C9.59436 9.78977 9.35627 9.95136 9.1065 10.2139C8.86974 10.4559 8.68752 10.7506 8.57323 11.0764C8.47527 11.3409 8.35914 11.7377 8.32735 12.4693C8.29297 13.2602 8.28583 13.4975 8.28583 15.5C8.28583 17.5025 8.29297 17.7398 8.32735 18.5307C8.35914 19.2623 8.47527 19.6591 8.57323 19.9236C8.68741 20.2489 8.86971 20.5441 9.1065 20.7861C9.33681 21.035 9.61772 21.2266 9.92718 21.3466C10.1789 21.4495 10.5565 21.5716 11.2526 21.605C12.0051 21.6411 12.2302 21.6486 14.1363 21.6486C16.0423 21.6486 16.2674 21.6411 17.02 21.605C17.7161 21.5716 18.0937 21.4495 18.3454 21.3466C18.6782 21.2102 18.9163 21.0486 19.1661 20.7861C19.4029 20.5441 19.5852 20.2489 19.6993 19.9236C19.7973 19.6591 19.9134 19.2623 19.9452 18.5307C19.9796 17.7398 19.9867 17.5025 19.9867 15.5C19.9867 13.4975 19.9796 13.2602 19.9452 12.4693C19.9134 11.7377 19.7973 11.3409 19.6993 11.0764C19.5696 10.7266 19.4158 10.4764 19.1661 10.2139C18.9357 9.96505 18.6553 9.77355 18.3454 9.65341C18.0937 9.55045 17.7161 9.42841 17.02 9.395ZM13.2248 17.812C13.7338 18.0347 14.3007 18.0648 14.8285 17.8971C15.3563 17.7294 15.8123 17.3743 16.1186 16.8924C16.425 16.4106 16.5627 15.832 16.5082 15.2553C16.4537 14.6786 16.2104 14.1398 15.8198 13.7307C15.5708 13.4692 15.2698 13.269 14.9384 13.1444C14.6069 13.0199 14.2533 12.9741 13.9031 13.0104C13.5528 13.0467 13.2145 13.1642 12.9126 13.3544C12.6107 13.5446 12.3527 13.8028 12.1571 14.1104C11.9616 14.4179 11.8333 14.7672 11.7816 15.1332C11.73 15.4991 11.7561 15.8725 11.8582 16.2265C11.9603 16.5805 12.1358 16.9063 12.3721 17.1805C12.6084 17.4547 12.8996 17.6704 13.2248 17.812ZM11.5426 12.7741C11.8832 12.4161 12.2875 12.1322 12.7326 11.9384C13.1776 11.7447 13.6546 11.645 14.1363 11.645C14.618 11.645 15.095 11.7447 15.54 11.9384C15.985 12.1322 16.3894 12.4161 16.73 12.7741C17.0706 13.1321 17.3408 13.557 17.5251 14.0247C17.7095 14.4925 17.8044 14.9938 17.8044 15.5C17.8044 16.0062 17.7095 16.5075 17.5251 16.9753C17.3408 17.443 17.0706 17.8679 16.73 18.2259C16.0421 18.9489 15.1091 19.355 14.1363 19.355C13.1635 19.355 12.2305 18.9489 11.5426 18.2259C10.8547 17.503 10.4682 16.5224 10.4682 15.5C10.4682 14.4776 10.8547 13.497 11.5426 12.7741ZM18.6179 12.2191C18.7023 12.1354 18.7699 12.0348 18.8166 11.9232C18.8633 11.8115 18.8883 11.6912 18.89 11.5693C18.8917 11.4473 18.8701 11.3263 18.8264 11.2133C18.7828 11.1003 18.7181 10.9976 18.636 10.9114C18.554 10.8252 18.4563 10.7571 18.3488 10.7113C18.2412 10.6654 18.1261 10.6427 18.01 10.6445C17.894 10.6463 17.7795 10.6725 17.6733 10.7216C17.5671 10.7707 17.4714 10.8417 17.3917 10.9305C17.2369 11.103 17.1521 11.3321 17.1554 11.5693C17.1587 11.8064 17.2498 12.0329 17.4093 12.2006C17.5689 12.3683 17.7844 12.464 18.01 12.4675C18.2357 12.4709 18.4537 12.3818 18.6179 12.2191Z" fill="black"/>
</svg>
