<svg width="195" height="30" viewBox="0 0 195 30" fill="none" xmlns="http://www.w3.org/2000/svg">
<path d="M9.40851 9.50978C12.1897 9.50978 14.4998 10.9452 15.5988 12.4928V9.89107H19.8379V29.2022H16.7876C16.6283 29.2029 16.4705 29.172 16.3233 29.1113C16.1761 29.0507 16.0423 28.9615 15.9297 28.8489C15.8171 28.7363 15.7279 28.6025 15.6673 28.4553C15.6066 28.3081 15.5758 28.1503 15.5764 27.991V26.6005C14.4998 28.1705 12.1897 29.6059 9.40851 29.6059C4.11533 29.6059 0.100586 25.0753 0.100586 19.5578C0.100586 14.0404 4.11533 9.50978 9.40851 9.50978ZM10.1711 13.3675C6.73949 13.3675 4.4069 16.0814 4.4069 19.5578C4.4069 23.0343 6.71706 25.7482 10.1711 25.7482C13.6027 25.7482 15.9353 23.0343 15.9353 19.5578C15.9353 16.0814 13.6251 13.3675 10.1711 13.3675ZM24.66 9.89107H28.9215V12.5152C30.0878 10.5864 32.2858 9.50978 34.7978 9.50978C39.2836 9.50978 42.1769 12.6722 42.1769 17.5841V29.2022H39.1266C38.9673 29.2029 38.8095 29.172 38.6623 29.1113C38.5151 29.0507 38.3813 28.9615 38.2687 28.8489C38.1561 28.7363 38.0669 28.6025 38.0063 28.4553C37.9456 28.3081 37.9148 28.1503 37.9154 27.991V18.2794C37.9154 15.2291 36.3678 13.3675 33.9007 13.3675C31.0747 13.3675 28.9215 15.5655 28.9215 19.6924V29.2022H25.8712C25.712 29.2029 25.5542 29.172 25.4069 29.1113C25.2597 29.0507 25.1259 28.9615 25.0133 28.8489C24.9007 28.7363 24.8115 28.6025 24.7509 28.4553C24.6903 28.3081 24.6594 28.1503 24.66 27.991V9.89107ZM54.8491 9.50978C57.6303 9.50978 59.9404 10.9452 61.0394 12.4928V0.246716H65.2785V29.2246H62.2282C62.0689 29.2253 61.9111 29.1944 61.7639 29.1338C61.6167 29.0731 61.4829 28.9839 61.3703 28.8713C61.2577 28.7587 61.1685 28.625 61.1079 28.4777C61.0472 28.3305 61.0163 28.1727 61.017 28.0135V26.6229C59.9404 28.1705 57.6078 29.6059 54.8267 29.6059C49.5335 29.6059 45.5188 25.0753 45.5188 19.5578C45.5412 14.0404 49.5559 9.50978 54.8491 9.50978ZM55.6117 13.3675C52.1801 13.3675 49.8475 16.0814 49.8475 19.5578C49.8475 23.0343 52.1576 25.7482 55.6117 25.7482C59.0433 25.7482 61.3759 23.0343 61.3759 19.5578C61.3759 16.0814 59.0433 13.3675 55.6117 13.3675ZM70.1006 9.89107H74.3397V13.3227C74.7115 12.2669 75.3999 11.3515 76.3111 10.7013C77.2222 10.051 78.3117 9.69762 79.431 9.68921C79.988 9.68792 80.5438 9.74049 81.0907 9.84621V14.2198C80.4039 13.9882 79.6847 13.8671 78.96 13.861C76.5153 13.861 74.3172 15.902 74.3172 19.7821V29.2022H71.2669C71.1077 29.2029 70.9499 29.172 70.8027 29.1113C70.6554 29.0507 70.5217 28.9615 70.4091 28.8489C70.2965 28.7363 70.2073 28.6025 70.1466 28.4553C70.086 28.3081 70.0551 28.1503 70.0558 27.991V9.89107H70.1006ZM92.5742 29.6059C86.8549 29.6059 82.4589 25.165 82.4589 19.5578C82.4589 13.9507 86.8549 9.50978 92.5742 9.50978C98.2935 9.50978 102.69 13.9507 102.69 19.5578C102.69 25.165 98.2935 29.6059 92.5742 29.6059ZM92.5742 25.6585C95.9834 25.6585 98.3608 22.9894 98.3608 19.5578C98.3608 16.1263 95.961 13.4572 92.5742 13.4572C89.1426 13.4572 86.7428 16.1263 86.7428 19.5578C86.7428 22.9894 89.1426 25.6585 92.5742 25.6585ZM108.252 5.67447C107.498 5.66959 106.776 5.36792 106.243 4.83478C105.71 4.30165 105.408 3.57997 105.403 2.82602C105.417 2.07681 105.722 1.36236 106.254 0.834599C106.786 0.306841 107.503 0.00741603 108.252 0C109.004 1.12128e-08 109.726 0.298922 110.258 0.831006C110.79 1.36309 111.089 2.08475 111.089 2.83723C111.089 3.58971 110.79 4.31138 110.258 4.84346C109.726 5.37555 109.004 5.67447 108.252 5.67447ZM106.144 9.89107H110.383V29.2022H107.355C107.196 29.2029 107.038 29.172 106.89 29.1113C106.743 29.0507 106.609 28.9615 106.497 28.8489C106.384 28.7363 106.295 28.6025 106.234 28.4553C106.174 28.3081 106.143 28.1503 106.144 27.991V9.89107ZM123.189 9.50978C125.971 9.50978 128.281 10.9452 129.38 12.4928V0.246716H133.619V29.2246H130.568C130.409 29.2253 130.251 29.1944 130.104 29.1338C129.957 29.0731 129.823 28.9839 129.711 28.8713C129.598 28.7587 129.509 28.625 129.448 28.4777C129.388 28.3305 129.357 28.1727 129.357 28.0135V26.6229C128.281 28.1705 125.948 29.6059 123.167 29.6059C117.874 29.6059 113.859 25.0753 113.859 19.5578C113.882 14.0404 117.896 9.50978 123.189 9.50978ZM123.974 13.3675C120.543 13.3675 118.21 16.0814 118.21 19.5578C118.21 23.0343 120.52 25.7482 123.974 25.7482C127.406 25.7482 129.739 23.0343 129.739 19.5578C129.739 16.0814 127.406 13.3675 123.974 13.3675Z" fill="#737373"/>
<path d="M180.517 21.9133C180.091 21.9133 179.675 21.787 179.321 21.5505C178.967 21.3139 178.691 20.9776 178.528 20.5841C178.365 20.1907 178.322 19.7578 178.405 19.3401C178.489 18.9224 178.694 18.5388 178.995 18.2377C179.296 17.9365 179.68 17.7315 180.097 17.6484C180.515 17.5653 180.948 17.6079 181.341 17.7709C181.735 17.9339 182.071 18.2099 182.308 18.5639C182.544 18.918 182.67 19.3343 182.67 19.7602C182.67 20.3312 182.444 20.8789 182.04 21.2827C181.636 21.6865 181.088 21.9133 180.517 21.9133ZM156.81 21.9133C156.384 21.9133 155.968 21.787 155.614 21.5505C155.26 21.3139 154.984 20.9776 154.821 20.5841C154.658 20.1907 154.615 19.7578 154.698 19.3401C154.781 18.9224 154.986 18.5388 155.288 18.2377C155.589 17.9365 155.972 17.7315 156.39 17.6484C156.808 17.5653 157.241 17.6079 157.634 17.7709C158.027 17.9339 158.364 18.2099 158.6 18.5639C158.837 18.918 158.963 19.3343 158.963 19.7602C158.963 20.3312 158.736 20.8789 158.333 21.2827C157.929 21.6865 157.381 21.9133 156.81 21.9133ZM181.28 8.99438L185.586 1.57048C185.644 1.46882 185.682 1.35669 185.696 1.24052C185.711 1.12436 185.703 1.00644 185.671 0.893546C185.64 0.780654 185.587 0.675013 185.515 0.582689C185.443 0.490365 185.354 0.413179 185.252 0.355565C185.15 0.297951 185.038 0.261044 184.921 0.246965C184.805 0.232885 184.687 0.24191 184.574 0.273521C184.462 0.305133 184.356 0.358707 184.264 0.431167C184.172 0.503628 184.096 0.593546 184.039 0.695756L179.687 8.20938C176.232 6.63017 172.474 5.81905 168.675 5.83193C164.871 5.82262 161.109 6.62552 157.64 8.18695L153.289 0.673327C153.172 0.469315 152.979 0.319786 152.753 0.257441C152.526 0.195096 152.284 0.225009 152.08 0.340638C151.875 0.456267 151.725 0.648203 151.661 0.874468C151.598 1.10073 151.627 1.34291 151.741 1.54805L156.025 8.97196C152.321 10.9921 149.179 13.9041 146.884 17.4444C144.589 20.9847 143.214 25.0415 142.882 29.2475H194.401C194.079 25.0445 192.71 20.989 190.418 17.4512C188.126 13.9134 184.984 11.006 181.28 8.99438Z" fill="#737373"/>
</svg>
