<svg width="178" height="31" viewBox="0 0 178 31" fill="none" xmlns="http://www.w3.org/2000/svg">
<path d="M9.63701 9.86914C12.5168 9.86914 14.9175 11.3541 16.0356 12.959V10.27H20.434V30.3314H17.4468C16.6675 30.3314 16.0356 29.6985 16.0356 28.9157V27.6451C14.9175 29.2486 12.5168 30.7325 9.63701 30.7325C4.16027 30.7325 0 26.0392 0 20.3014C0 14.5636 4.16027 9.86914 9.63701 9.86914ZM10.4372 13.8821C6.87756 13.8821 4.4779 16.69 4.4779 20.3014C4.4779 23.9117 6.87756 26.7213 10.4372 26.7213C13.9957 26.7213 16.3965 23.9117 16.3965 20.3014C16.3965 16.69 13.9959 13.8821 10.4372 13.8821Z" fill="#737373"/>
<path d="M25.4297 10.271H29.8292V12.9991C31.0278 10.9937 33.3083 9.87012 35.9077 9.87012C40.5457 9.87012 43.5457 13.1602 43.5457 18.2561V30.3317H40.5574C39.7783 30.3317 39.1462 29.6977 39.1462 28.916V18.9784C39.1462 15.809 37.5458 13.8831 34.9883 13.8831C32.0689 13.8831 29.8295 16.17 29.8295 20.4623V30.3317H26.8398C26.0618 30.3317 25.4297 29.6977 25.4297 28.916V10.271Z" fill="#737373"/>
<path d="M56.6623 9.86895C59.541 9.86895 61.9417 11.354 63.0609 12.9588V0.240234H67.4582V30.3312H64.471C63.693 30.3312 63.0609 29.6983 63.0609 28.9155V27.6449C61.9417 29.2484 59.541 30.7323 56.6623 30.7323C51.1831 30.7323 47.0244 26.039 47.0244 20.3012C47.0244 14.5634 51.1834 9.86895 56.6623 9.86895ZM57.4627 13.8819C53.9042 13.8819 51.5045 16.6898 51.5045 20.3012C51.5045 23.9115 53.9042 26.7211 57.4627 26.7211C61.0199 26.7211 63.4196 23.9115 63.4196 20.3012C63.4196 16.6898 61.0199 13.8819 57.4627 13.8819Z" fill="#737373"/>
<path d="M72.4551 10.2707H76.8535V13.8416C77.6129 11.5547 79.8525 10.0703 82.1327 10.0703C82.6912 10.0703 83.253 10.1108 83.8525 10.2309V14.7643C83.0907 14.5233 82.453 14.4033 81.6539 14.4033C79.134 14.4033 76.8537 16.5308 76.8537 20.5429V30.3315H73.8654C73.0875 30.3315 72.4553 29.6974 72.4553 28.9157V10.2707H72.4551Z" fill="#737373"/>
<path d="M95.7121 30.7325C89.7949 30.7325 85.2354 26.1176 85.2354 20.3025C85.2354 14.4845 89.7949 9.86914 95.7121 9.86914C101.632 9.86914 106.189 14.4834 106.189 20.3025C106.189 26.1176 101.632 30.7325 95.7121 30.7325ZM95.7121 26.6416C99.2311 26.6416 101.711 23.8718 101.711 20.3025C101.711 16.7323 99.2309 13.9625 95.7121 13.9625C92.1538 13.9625 89.6746 16.7323 89.6746 20.3025C89.6746 23.8718 92.1538 26.6416 95.7121 26.6416Z" fill="#737373"/>
<path d="M111.953 5.89816C110.354 5.89816 108.994 4.5755 108.994 2.92859C108.994 1.32377 110.354 0 111.953 0C113.592 0 114.873 1.32399 114.873 2.92859C114.873 4.5755 113.592 5.89816 111.953 5.89816ZM109.756 10.2703H114.153V30.3317H111.166C110.387 30.3317 109.756 29.6963 109.756 28.916V10.2703Z" fill="#737373"/>
<path d="M127.404 9.86895C130.284 9.86895 132.684 11.354 133.804 12.9588V0.240234H138.202V30.3312H135.215C134.435 30.3312 133.804 29.6983 133.804 28.9155V27.6449C132.684 29.2484 130.284 30.7323 127.404 30.7323C121.927 30.7323 117.769 26.039 117.769 20.3012C117.769 14.5634 121.927 9.86895 127.404 9.86895ZM128.205 13.8819C124.647 13.8819 122.248 16.6898 122.248 20.3012C122.248 23.9115 124.647 26.7211 128.205 26.7211C131.764 26.7211 134.164 23.9115 134.164 20.3012C134.164 16.6898 131.764 13.8819 128.205 13.8819Z" fill="#737373"/>
<path d="M145.851 12.8231H141.547V10.1611H145.851V4.55176H148.665V10.1611H154.537V12.8231H148.665V24.4842C148.665 26.9447 149.752 27.9128 152.003 27.9128C152.806 27.9128 153.893 27.7511 154.537 27.4698V30.0111C153.61 30.3746 152.646 30.536 151.56 30.536C148.143 30.536 145.851 28.5575 145.851 24.7245V12.8231Z" fill="#737373"/>
<path d="M177.418 10.1602L168.009 30.3342H165.797L156.387 10.1602H159.524L166.883 26.1779L174.241 10.1602H177.418Z" fill="#737373"/>
</svg>
