<svg width="132" height="30" viewBox="0 0 132 30" fill="none" xmlns="http://www.w3.org/2000/svg">
<path d="M47.4822 23.1145H47.4219L43.7259 7.54821H39.3782L35.6973 23.1145H35.6365L32.2133 7.54821H27.6385L33.3946 29.3416H37.7116L41.5136 14.445H41.5895L45.3915 29.3416H49.7392L55.4801 7.54821H50.9054L47.4822 23.1145ZM102.12 7.19679C96.6673 7.19679 93.4104 10.9168 93.4104 17.1595V19.7946C93.4104 26.1011 96.6517 29.7096 102.105 29.7096C107.573 29.7096 110.3 26.197 110.3 22.2686V21.87H106.195C106.195 24.1211 105.134 25.8771 102.181 25.8771C99.2116 25.8771 97.7576 23.9454 97.7576 19.7946V17.1595C97.7576 13.057 99.2267 10.9971 102.15 10.9971C104.892 10.9971 106.195 12.9129 106.195 15.0686H110.3V14.8446C110.3 10.5975 107.24 7.19679 102.12 7.19679ZM62.4029 7.54821L55.7379 29.3416H60.0248L61.522 23.8495H68.0633L69.5371 29.3416H74.127L67.4776 7.54821H62.4029ZM62.4366 20.497L64.7965 11.843H64.8418L67.1637 20.497H62.4366ZM127.599 7.54821V16.298H119.146V7.54821H114.86V29.3416H119.146V20.0496H127.599V29.3421H131.901V7.54821H127.599ZM74.0516 11.3159H80.201V29.3416H84.4728V11.3159H90.6379V7.54821H74.0516V11.3159ZM19.6016 15.7923C19.5678 12.0321 22.5144 10.223 22.649 10.1357C20.9762 7.53964 18.3923 7.25304 17.4823 7.18125C15.1593 7.00125 13.1903 8.54946 12.0906 8.54946C10.9754 8.54946 9.25572 7.22036 7.43214 7.25625C5.03847 7.29429 2.83189 8.72304 1.59816 10.9837C-0.888535 15.5346 0.963103 22.2745 3.38484 25.9645C4.56972 27.7698 5.98222 29.8018 7.83854 29.7273C9.62521 29.6534 10.3003 28.5086 12.4601 28.5086C14.6183 28.5086 15.2274 29.7273 17.1165 29.6893C19.0388 29.6539 20.2574 27.8507 21.433 26.0346C22.7945 23.9421 23.3537 21.9161 23.387 21.8062C23.3439 21.7912 19.638 20.2923 19.6016 15.7923ZM16.0485 4.74429C17.0349 3.48911 17.699 1.73786 17.5161 0C16.0963 0.0583929 14.3803 0.996964 13.3617 2.25054C12.4502 3.36321 11.6489 5.14393 11.8661 6.85018C13.4491 6.97821 15.0632 6.00107 16.0485 4.74429Z" fill="#737373"/>
</svg>
