<svg width="31" height="30" viewBox="0 0 31 30" fill="none" xmlns="http://www.w3.org/2000/svg">
<circle cx="15.5156" cy="15" r="15" fill="#1B1B1B"/>
<path d="M13.0807 10.8295C12.1552 10.4391 11.1787 10.1605 10.1754 10.0006C10.1663 9.99916 10.1569 10.0004 10.1486 10.004C10.1403 10.0077 10.1335 10.0137 10.129 10.0211C10.0032 10.2261 9.86405 10.4942 9.76682 10.7041C8.68533 10.5532 7.58527 10.5532 6.50379 10.7041C6.39533 10.4702 6.27263 10.2422 6.13627 10.0211C6.13169 10.0137 6.12481 10.0079 6.11653 10.0042C6.10825 10.0006 6.09896 9.99928 6.08989 10.0006C5.08636 10.1596 4.10959 10.4384 3.18455 10.8295C3.17664 10.8323 3.17002 10.8375 3.16582 10.8443C1.31576 13.3853 0.808196 15.864 1.05707 18.3115C1.05796 18.323 1.06599 18.3344 1.0758 18.3418C2.15313 19.0754 3.35814 19.6354 4.63945 19.9981C4.6485 20.0007 4.65822 20.0006 4.6672 19.9978C4.67618 19.995 4.68396 19.9897 4.6894 19.9825C4.96415 19.6381 5.20856 19.2749 5.41908 18.8928C5.42347 18.885 5.42497 18.876 5.42336 18.8673C5.42176 18.8586 5.41713 18.8505 5.41016 18.8444C5.40555 18.8404 5.40008 18.8374 5.3941 18.8354C5.00978 18.6997 4.63757 18.5365 4.28086 18.3476C4.27089 18.3424 4.26348 18.3339 4.26016 18.3238C4.25684 18.3137 4.25786 18.3028 4.26301 18.2934C4.26605 18.2873 4.27064 18.282 4.2764 18.2779C4.35133 18.2262 4.42626 18.1721 4.49762 18.118C4.50392 18.1133 4.51149 18.1103 4.5195 18.1093C4.52751 18.1083 4.53567 18.1093 4.54311 18.1122C6.87933 19.0929 9.40822 19.0929 11.7159 18.1122C11.7236 18.1092 11.7321 18.1081 11.7404 18.1091C11.7487 18.1101 11.7566 18.1132 11.7632 18.118C11.8345 18.1721 11.9095 18.2262 11.9844 18.2779C11.9905 18.2819 11.9953 18.2873 11.9986 18.2936C12.0018 18.2998 12.0034 18.3067 12.003 18.3136C12.0026 18.3205 12.0004 18.3272 11.9966 18.3331C11.9927 18.3391 11.9873 18.344 11.9808 18.3476C11.6249 18.5383 11.2522 18.7012 10.8667 18.8346C10.8605 18.8367 10.855 18.8399 10.8503 18.8442C10.8457 18.8484 10.8422 18.8536 10.8399 18.8592C10.8379 18.8647 10.837 18.8705 10.8375 18.8763C10.838 18.882 10.8397 18.8877 10.8426 18.8928C11.0567 19.2741 11.302 19.6381 11.5714 19.9825C11.5768 19.9897 11.5846 19.995 11.5936 19.9978C11.6026 20.0006 11.6123 20.0007 11.6213 19.9981C12.9048 19.6365 14.1118 19.0764 15.1903 18.3418C15.1957 18.3384 15.2002 18.3339 15.2035 18.3286C15.2067 18.3234 15.2086 18.3175 15.2091 18.3115C15.507 15.4819 14.7104 13.0237 13.0985 10.8451C13.0969 10.8415 13.0945 10.8383 13.0914 10.8356C13.0883 10.8329 13.0847 10.8308 13.0807 10.8295ZM5.76786 16.8208C5.06405 16.8208 4.48513 16.2272 4.48513 15.4991C4.48513 14.7702 5.05335 14.1765 5.76786 14.1765C6.48773 14.1765 7.0613 14.7751 7.0506 15.4991C7.0506 16.2272 6.48238 16.8208 5.76786 16.8208ZM10.5099 16.8208C9.80696 16.8208 9.22714 16.2272 9.22714 15.4991C9.22714 14.7702 9.79536 14.1765 10.5099 14.1765C11.2297 14.1765 11.8042 14.7751 11.7926 15.4991C11.7926 16.2272 11.2297 16.8208 10.5099 16.8208Z" fill="white"/>
</svg>
