<svg width="48" height="48" viewBox="0 0 48 48" fill="none" xmlns="http://www.w3.org/2000/svg">
<rect x="0.769231" y="0.769231" width="46.4615" height="46.4615" rx="3.23077" fill="#F1F3F7" stroke="#6D758F" stroke-width="1.53846"/>
<mask id="mask0_685_1655" style="mask-type:alpha" maskUnits="userSpaceOnUse" x="1" y="1" width="46" height="46">
<rect x="1.68066" y="1.84967" width="44.6131" height="44.6024" rx="4" fill="#E3EFFF"/>
</mask>
<g mask="url(#mask0_685_1655)">
<line x1="32.8195" y1="6.10127e-05" x2="32.8195" y2="50.0481" stroke="#B4B9C9" stroke-width="1.02564"/>
<line x1="41.1271" y1="6.10127e-05" x2="41.1271" y2="50.0481" stroke="#B4B9C9" stroke-width="1.02564"/>
<line x1="24.5118" y1="6.10127e-05" x2="24.5118" y2="50.0481" stroke="#B4B9C9" stroke-width="1.02564"/>
<line x1="7.89661" y1="6.10127e-05" x2="7.89661" y2="50.0481" stroke="#B4B9C9" stroke-width="1.02564"/>
<line x1="16.2042" y1="6.10127e-05" x2="16.2042" y2="50.0481" stroke="#B4B9C9" stroke-width="1.02564"/>
<line x1="-1.02441" y1="16.2035" x2="49.0237" y2="16.2035" stroke="#B4B9C9" stroke-width="1.02564"/>
<line x1="-1.02441" y1="7.89581" x2="49.0237" y2="7.89581" stroke="#B4B9C9" stroke-width="1.02564"/>
<line x1="-1.02441" y1="24.5112" x2="49.0237" y2="24.5112" stroke="#B4B9C9" stroke-width="1.02564"/>
<line x1="-1.02441" y1="41.1266" x2="49.0237" y2="41.1266" stroke="#B4B9C9" stroke-width="1.02564"/>
<line x1="-1.02441" y1="32.819" x2="49.0237" y2="32.819" stroke="#B4B9C9" stroke-width="1.02564"/>
<rect x="1.41211" y="1.53467" width="45.0024" height="44.9916" rx="4" fill="url(#paint0_radial_685_1655)"/>
</g>
<g filter="url(#filter0_d_685_1655)">
<path d="M13.2549 17.897C13.2549 16.2599 14.582 14.9327 16.2191 14.9327H31.7814C33.4186 14.9327 34.7457 16.2599 34.7457 17.897V29.6618C34.7457 31.299 33.4186 32.6261 31.7814 32.6261H16.2191C14.582 32.6261 13.2549 31.299 13.2549 29.6618L13.2549 17.897Z" fill="white" stroke="#6D758F" stroke-width="1.23077" stroke-linecap="round" stroke-linejoin="round"/>
<path d="M14.4004 15.5302L22.6083 22.9006C23.397 23.6089 24.5955 23.5995 25.373 22.879L33.3033 15.5302" fill="#B4B9C9"/>
<path d="M14.4004 15.7135L22.6083 23.0839C23.397 23.7922 24.5955 23.7828 25.373 23.0623L33.3033 15.7135" stroke="#6D758F" stroke-width="1.23077" stroke-linecap="round" stroke-linejoin="round"/>
</g>
<defs>
<filter id="filter0_d_685_1655" x="8.63965" y="11.3174" width="30.7217" height="26.9241" filterUnits="userSpaceOnUse" color-interpolation-filters="sRGB">
<feFlood flood-opacity="0" result="BackgroundImageFix"/>
<feColorMatrix in="SourceAlpha" type="matrix" values="0 0 0 0 0 0 0 0 0 0 0 0 0 0 0 0 0 0 127 0" result="hardAlpha"/>
<feOffset dy="1"/>
<feGaussianBlur stdDeviation="2"/>
<feComposite in2="hardAlpha" operator="out"/>
<feColorMatrix type="matrix" values="0 0 0 0 0.0969792 0 0 0 0 0.127894 0 0 0 0 0.2375 0 0 0 0.08 0"/>
<feBlend mode="normal" in2="BackgroundImageFix" result="effect1_dropShadow_685_1655"/>
<feBlend mode="normal" in="SourceGraphic" in2="effect1_dropShadow_685_1655" result="shape"/>
</filter>
<radialGradient id="paint0_radial_685_1655" cx="0" cy="0" r="1" gradientUnits="userSpaceOnUse" gradientTransform="translate(23.9133 24.0305) rotate(90) scale(22.4958 22.5012)">
<stop stop-color="#F6FAFD" stop-opacity="0.28"/>
<stop offset="1" stop-color="#F6FAFD"/>
</radialGradient>
</defs>
</svg>
