<svg width="20" height="20" viewBox="0 0 20 20" fill="none" xmlns="http://www.w3.org/2000/svg">
<path d="M8.75311 12.4599C8.19157 12.4599 7.86263 12.1438 7.86263 11.5765V10.92C5.5041 10.7579 3.1536 10.2717 0.714844 9.33966V8.00248C3.71515 9.33157 6.72348 9.80163 9.99655 9.80163C13.2777 9.80163 16.286 9.33157 19.2863 8.00248V9.33966C16.8475 10.2717 14.497 10.7579 12.1385 10.92V11.5765C12.1385 12.1438 11.8095 12.4599 11.248 12.4599H8.75311ZM3.19371 17.8492H16.8074C18.468 17.8492 19.2863 17.0388 19.2863 15.3774V7.49191C19.2863 5.83053 18.468 5.0201 16.8074 5.0201H3.19371C1.54113 5.0201 0.714844 5.83053 0.714844 7.49191V15.3774C0.714844 17.0388 1.54113 17.8492 3.19371 17.8492ZM5.92929 5.72517H7.17273V4.29071C7.17273 3.67478 7.53373 3.3263 8.15946 3.3263H11.8417C12.4674 3.3263 12.8204 3.67478 12.8204 4.29071V5.70896H14.0638V4.37986C14.0638 2.85625 13.2696 2.14307 11.8176 2.14307H8.17548C6.80371 2.14307 5.92929 2.85625 5.92929 4.37986V5.72517Z" fill="#3B3B3B"/>
</svg>
