<svg width="40" height="40" viewBox="0 0 40 40" fill="none" xmlns="http://www.w3.org/2000/svg">
<g clip-path="url(#clip0_1_1221)">
<path d="M33.333 20.0002C33.333 16.4639 31.9283 13.0726 29.4278 10.5721C26.9273 8.07159 23.5359 6.66683 19.9997 6.66683C16.4635 6.66683 13.0721 8.07159 10.5716 10.5721C8.0711 13.0726 6.66634 16.4639 6.66634 20.0002V26.6668H11.6663C12.1084 26.6668 12.5323 26.8424 12.8449 27.155C13.1574 27.4675 13.333 27.8915 13.333 28.3335V33.3335H26.6663V28.3335C26.6663 27.8915 26.8419 27.4675 27.1545 27.155C27.4671 26.8424 27.891 26.6668 28.333 26.6668H33.333V20.0002ZM29.9997 30.0002V35.0002C29.9997 35.4422 29.8241 35.8661 29.5115 36.1787C29.199 36.4912 28.775 36.6668 28.333 36.6668H11.6663C11.2243 36.6668 10.8004 36.4912 10.4878 36.1787C10.1753 35.8661 9.99967 35.4422 9.99967 35.0002V30.0002H4.99967C4.55765 30.0002 4.13372 29.8246 3.82116 29.512C3.5086 29.1994 3.33301 28.7755 3.33301 28.3335V20.0002C3.33301 10.7952 10.7947 3.3335 19.9997 3.3335C29.2047 3.3335 36.6663 10.7952 36.6663 20.0002V28.3335C36.6663 28.7755 36.4907 29.1994 36.1782 29.512C35.8656 29.8246 35.4417 30.0002 34.9997 30.0002H29.9997ZM12.4997 23.3335C12.1714 23.3335 11.8463 23.2688 11.543 23.1432C11.2397 23.0176 10.9641 22.8334 10.7319 22.6013C10.4998 22.3691 10.3156 22.0935 10.19 21.7902C10.0643 21.4869 9.99967 21.1618 9.99967 20.8335C9.99967 20.5052 10.0643 20.1801 10.19 19.8768C10.3156 19.5735 10.4998 19.2979 10.7319 19.0657C10.9641 18.8336 11.2397 18.6494 11.543 18.5238C11.8463 18.3982 12.1714 18.3335 12.4997 18.3335C13.1627 18.3335 13.7986 18.5969 14.2674 19.0657C14.7363 19.5346 14.9997 20.1705 14.9997 20.8335C14.9997 21.4965 14.7363 22.1324 14.2674 22.6013C13.7986 23.0701 13.1627 23.3335 12.4997 23.3335ZM27.4997 23.3335C27.1714 23.3335 26.8463 23.2688 26.543 23.1432C26.2397 23.0176 25.9641 22.8334 25.7319 22.6013C25.4998 22.3691 25.3156 22.0935 25.19 21.7902C25.0643 21.4869 24.9997 21.1618 24.9997 20.8335C24.9997 20.5052 25.0643 20.1801 25.19 19.8768C25.3156 19.5735 25.4998 19.2979 25.7319 19.0657C25.9641 18.8336 26.2397 18.6494 26.543 18.5238C26.8463 18.3982 27.1714 18.3335 27.4997 18.3335C28.1627 18.3335 28.7986 18.5969 29.2674 19.0657C29.7363 19.5346 29.9997 20.1705 29.9997 20.8335C29.9997 21.4965 29.7363 22.1324 29.2674 22.6013C28.7986 23.0701 28.1627 23.3335 27.4997 23.3335Z" fill="#0B0914"/>
</g>
<defs>
<clipPath id="clip0_1_1221">
<rect width="40" height="40" fill="white"/>
</clipPath>
</defs>
</svg>
