<svg width="20" height="20" viewBox="0 0 20 20" fill="none" xmlns="http://www.w3.org/2000/svg">
<path d="M12.7227 18.0104L6.05608 10.5104C5.92248 10.3583 5.8488 10.1628 5.8488 9.96036C5.8488 9.75794 5.92248 9.56244 6.05608 9.41036L12.7227 1.91036C12.8715 1.7555 13.0743 1.66403 13.2888 1.65503C13.5033 1.64603 13.7131 1.72018 13.8743 1.86204C14.0355 2.00389 14.1357 2.20249 14.154 2.41643C14.1724 2.63037 14.1074 2.84313 13.9727 3.01036L7.79775 9.96036L13.9727 16.9104C14.0507 16.9915 14.1114 17.0876 14.1512 17.1928C14.191 17.298 14.2091 17.4102 14.2043 17.5226C14.1996 17.635 14.1722 17.7452 14.1237 17.8468C14.0752 17.9483 14.0067 18.0389 13.9223 18.1132C13.8378 18.1875 13.7392 18.244 13.6323 18.2792C13.5255 18.3143 13.4126 18.3275 13.3005 18.3179C13.1885 18.3083 13.0795 18.2761 12.9802 18.2232C12.8809 18.1704 12.7933 18.098 12.7227 18.0104Z" fill="#A3A3A3"/>
</svg>
