<svg width="19" height="18" viewBox="0 0 19 18" fill="none" xmlns="http://www.w3.org/2000/svg">
<path d="M14.2056 12.2948L17.3492 15.4376L16.3106 16.4761L13.1678 13.3326C11.9984 14.27 10.5439 14.7799 9.04513 14.7778C5.39879 14.7778 2.43945 11.8184 2.43945 8.17208C2.43945 4.52575 5.39879 1.56641 9.04513 1.56641C12.6915 1.56641 15.6508 4.52575 15.6508 8.17208C15.6529 9.67083 15.1431 11.1254 14.2056 12.2948ZM12.7333 11.7502C13.6648 10.7922 14.185 9.50821 14.1829 8.17208C14.1829 5.33384 11.8834 3.03433 9.04513 3.03433C6.20689 3.03433 3.90738 5.33384 3.90738 8.17208C3.90738 11.0103 6.20689 13.3098 9.04513 13.3098C10.3813 13.3119 11.6653 12.7917 12.6232 11.8602L12.7333 11.7502Z" fill="#888888"/>
</svg>
