<svg width="20" height="20" viewBox="0 0 20 20" fill="none" xmlns="http://www.w3.org/2000/svg">
<path d="M14.6977 6.59941H12.9919C12.6469 6.59941 12.3669 6.879 12.3669 7.22441C12.3669 7.56983 12.6469 7.84941 12.9919 7.84941H14.6982C15.0427 7.84941 15.3232 8.12983 15.3232 8.47441V16.6477C15.3232 16.9923 15.0427 17.2727 14.6982 17.2727H5.30273C4.95815 17.2727 4.67773 16.9923 4.67773 16.6477V8.47441C4.67773 8.12983 4.95815 7.84941 5.30273 7.84941H7.00898C7.3544 7.84941 7.63398 7.56983 7.63398 7.22441C7.63398 6.879 7.3544 6.59941 7.00898 6.59941H5.30273C4.26898 6.59941 3.42773 7.44066 3.42773 8.47441V16.6477C3.42773 17.6815 4.26898 18.5227 5.30273 18.5227H14.6982C15.7319 18.5227 16.5732 17.6815 16.5732 16.6477V8.47441C16.5727 7.44025 15.7319 6.59941 14.6977 6.59941ZM7.66982 5.33775L9.39607 3.6115V11.8398C9.39607 12.1848 9.67565 12.4648 10.0211 12.4648C10.3665 12.4648 10.6461 12.1848 10.6461 11.8398V3.6115L12.3723 5.33775C12.4944 5.45983 12.6544 5.52066 12.8144 5.52066C12.9744 5.52066 13.1344 5.45983 13.2565 5.33775C13.5007 5.094 13.5007 4.69775 13.2565 4.454L10.4636 1.66066C10.219 1.4165 9.82357 1.4165 9.5794 1.66066L6.78607 4.454C6.5419 4.69775 6.5419 5.094 6.78607 5.33775C7.03023 5.58191 7.42565 5.58191 7.66982 5.33775Z" fill="#333333"/>
</svg>
