<svg width="20" height="20" viewBox="0 0 20 20" fill="none" xmlns="http://www.w3.org/2000/svg">
<path d="M2.5 10C2.5 10.3452 2.22016 10.625 1.875 10.625C1.52984 10.625 1.25 10.3452 1.25 10C1.25 5.17516 5.17516 1.25 10 1.25C12.4048 1.25 14.63 2.20828 16.25 3.85828V1.875C16.25 1.52984 16.5298 1.25 16.875 1.25C17.2202 1.25 17.5 1.52984 17.5 1.875V5.625C17.5 5.97016 17.2202 6.25 16.875 6.25H13.125C12.7798 6.25 12.5 5.97016 12.5 5.625C12.5 5.27984 12.7798 5 13.125 5H15.6106C14.2083 3.4225 12.1909 2.5 10 2.5C5.86453 2.5 2.5 5.86453 2.5 10ZM18.125 9.375C17.7798 9.375 17.5 9.65484 17.5 10C17.5 14.1355 14.1355 17.5 10 17.5C7.80906 17.5 5.79172 16.5775 4.38937 15H6.875C7.22016 15 7.5 14.7202 7.5 14.375C7.5 14.0298 7.22016 13.75 6.875 13.75H3.125C2.77984 13.75 2.5 14.0298 2.5 14.375V18.125C2.5 18.4702 2.77984 18.75 3.125 18.75C3.47016 18.75 3.75 18.4702 3.75 18.125V16.1417C5.37 17.7917 7.59516 18.75 10 18.75C14.8248 18.75 18.75 14.8248 18.75 10C18.75 9.65484 18.4702 9.375 18.125 9.375Z" fill="#FDD9D3"/>
</svg>
