<svg width="58" height="59" viewBox="0 0 58 59" fill="none" xmlns="http://www.w3.org/2000/svg">
<path fill-rule="evenodd" clip-rule="evenodd" d="M54.7778 3.72222H3.22222V44.3087L19.8706 24.1289L38.9138 45.6104L47.3829 37.0178L54.7778 45.4583V3.72222ZM3.22222 0.5C1.44264 0.5 0 1.94264 0 3.72222V55.2778C0 57.0574 1.44264 58.5 3.22222 58.5H54.7778C56.5574 58.5 58 57.0574 58 55.2778V3.72222C58 1.94264 56.5574 0.5 54.7778 0.5H3.22222ZM39.7403 25.2033C43.2995 25.2033 46.1848 22.3181 46.1848 18.7589C46.1848 15.1997 43.2995 12.3145 39.7403 12.3145C36.1812 12.3145 33.2959 15.1997 33.2959 18.7589C33.2959 22.3181 36.1812 25.2033 39.7403 25.2033Z" fill="#C8D5DC"/>
</svg>
