<svg width="19" height="20" viewBox="0 0 19 20" fill="none" xmlns="http://www.w3.org/2000/svg">
<path fill-rule="evenodd" clip-rule="evenodd" d="M5.3875 0.888984C6.365 0.843984 6.67667 0.833984 9.16667 0.833984C11.6567 0.833984 11.9683 0.844818 12.945 0.888984C13.9217 0.933151 14.5883 1.08898 15.1717 1.31482C15.7825 1.54565 16.3367 1.90648 16.795 2.37315C17.2617 2.83065 17.6217 3.38398 17.8517 3.99565C18.0783 4.57898 18.2333 5.24565 18.2783 6.22065C18.3233 7.19982 18.3333 7.51148 18.3333 10.0007C18.3333 12.4907 18.3225 12.8023 18.2783 13.7798C18.2342 14.7548 18.0783 15.4215 17.8517 16.0048C17.6217 16.6166 17.2611 17.1708 16.795 17.629C16.3367 18.0956 15.7825 18.4557 15.1717 18.6856C14.5883 18.9123 13.9217 19.0673 12.9467 19.1123C11.9683 19.1573 11.6567 19.1673 9.16667 19.1673C6.67667 19.1673 6.365 19.1565 5.3875 19.1123C4.4125 19.0681 3.74583 18.9123 3.1625 18.6856C2.55077 18.4556 1.99652 18.095 1.53833 17.629C1.07198 17.1712 0.711096 16.6172 0.480833 16.0056C0.255 15.4223 0.1 14.7556 0.055 13.7806C0.00999998 12.8015 0 12.4898 0 10.0007C0 7.51065 0.0108333 7.19898 0.055 6.22232C0.0991666 5.24565 0.255 4.57898 0.480833 3.99565C0.711436 3.38405 1.0726 2.83008 1.53917 2.37232C1.9967 1.90607 2.55039 1.54519 3.16167 1.31482C3.745 1.08898 4.41167 0.933984 5.38667 0.888984H5.3875ZM12.8708 2.53898C11.9042 2.49482 11.6142 2.48565 9.16667 2.48565C6.71917 2.48565 6.42917 2.49482 5.4625 2.53898C4.56833 2.57982 4.08333 2.72898 3.76 2.85482C3.3325 3.02148 3.02667 3.21898 2.70583 3.53982C2.4017 3.83569 2.16765 4.19589 2.02083 4.59398C1.895 4.91732 1.74583 5.40232 1.705 6.29648C1.66083 7.26315 1.65167 7.55315 1.65167 10.0007C1.65167 12.4481 1.66083 12.7381 1.705 13.7048C1.74583 14.599 1.895 15.084 2.02083 15.4073C2.1675 15.8048 2.40167 16.1656 2.70583 16.4615C3.00167 16.7656 3.3625 16.9998 3.76 17.1465C4.08333 17.2723 4.56833 17.4215 5.4625 17.4623C6.42917 17.5065 6.71833 17.5156 9.16667 17.5156C11.615 17.5156 11.9042 17.5065 12.8708 17.4623C13.765 17.4215 14.25 17.2723 14.5733 17.1465C15.0008 16.9798 15.3067 16.7823 15.6275 16.4615C15.9317 16.1656 16.1658 15.8048 16.3125 15.4073C16.4383 15.084 16.5875 14.599 16.6283 13.7048C16.6725 12.7381 16.6817 12.4481 16.6817 10.0007C16.6817 7.55315 16.6725 7.26315 16.6283 6.29648C16.5875 5.40232 16.4383 4.91732 16.3125 4.59398C16.1458 4.16648 15.9483 3.86065 15.6275 3.53982C15.3316 3.23571 14.9714 3.00166 14.5733 2.85482C14.25 2.72898 13.765 2.57982 12.8708 2.53898ZM7.99583 12.8265C8.64972 13.0987 9.37781 13.1354 10.0558 12.9304C10.7337 12.7254 11.3195 12.2914 11.713 11.7025C12.1065 11.1136 12.2834 10.4064 12.2134 9.70157C12.1434 8.99677 11.8308 8.33813 11.3292 7.83815C11.0094 7.51855 10.6227 7.27383 10.1969 7.12161C9.77121 6.96939 9.31702 6.91345 8.86708 6.95783C8.41713 7.00221 7.98263 7.1458 7.59484 7.37826C7.20705 7.61072 6.87562 7.92627 6.62442 8.30219C6.37322 8.67812 6.20849 9.10506 6.1421 9.55228C6.0757 9.99951 6.10929 10.4559 6.24045 10.8886C6.37161 11.3213 6.59707 11.7195 6.9006 12.0546C7.20413 12.3897 7.57819 12.6533 7.99583 12.8265ZM5.835 6.66898C6.27252 6.23146 6.79193 5.8844 7.36358 5.64762C7.93523 5.41083 8.54792 5.28896 9.16667 5.28896C9.78541 5.28896 10.3981 5.41083 10.9698 5.64762C11.5414 5.8844 12.0608 6.23146 12.4983 6.66898C12.9359 7.1065 13.2829 7.62592 13.5197 8.19757C13.7565 8.76921 13.8784 9.3819 13.8784 10.0007C13.8784 10.6194 13.7565 11.2321 13.5197 11.8037C13.2829 12.3754 12.9359 12.8948 12.4983 13.3323C11.6147 14.2159 10.4163 14.7123 9.16667 14.7123C7.91705 14.7123 6.71861 14.2159 5.835 13.3323C4.95139 12.4487 4.45498 11.2503 4.45498 10.0007C4.45498 8.75103 4.95139 7.5526 5.835 6.66898ZM14.9233 5.99065C15.0318 5.88837 15.1185 5.76538 15.1786 5.62896C15.2386 5.49254 15.2707 5.34546 15.2728 5.19643C15.275 5.04739 15.2473 4.89944 15.1912 4.76133C15.1352 4.62321 15.052 4.49774 14.9466 4.39235C14.8412 4.28696 14.7158 4.20378 14.5777 4.14775C14.4395 4.09172 14.2916 4.06396 14.1426 4.06614C13.9935 4.06831 13.8464 4.10036 13.71 4.1604C13.5736 4.22043 13.4506 4.30723 13.3483 4.41565C13.1494 4.62651 13.0405 4.90659 13.0448 5.19643C13.049 5.48627 13.166 5.76305 13.371 5.96802C13.5759 6.17299 13.8527 6.29001 14.1426 6.29423C14.4324 6.29846 14.7125 6.18956 14.9233 5.99065Z" fill="#141516"/>
</svg>
