<svg width="20" height="20" viewBox="0 0 20 20" fill="none" xmlns="http://www.w3.org/2000/svg">
<path d="M8.85684 0.0638948C4.34606 0.567098 0.682506 4.1485 0.0892638 8.64827C-0.751283 15.0248 4.46184 20.4497 10.7763 19.9705C13.0991 19.7942 15.2734 18.7562 16.977 17.1674L17.1233 17.031C17.2916 16.8741 17.3008 16.6104 17.1438 16.4421L16.5753 15.8324C16.4183 15.6641 16.1547 15.6549 15.9864 15.8119L15.6816 16.0962C13.7866 17.863 11.1853 18.658 8.5611 18.211C4.84176 17.5776 1.98255 14.4199 1.69212 10.6582C1.30809 5.68389 5.32059 1.52706 10.247 1.67022C14.7895 1.80229 18.3333 5.67866 18.3333 10.2231V10.8333C18.3333 11.8073 17.494 12.5885 16.5005 12.4919C15.6346 12.4077 15 11.6294 15 10.7594V7.08335C15 6.85319 14.8134 6.66667 14.5833 6.66667H13.75C13.5827 6.66667 13.4406 6.76667 13.3743 6.90897C12.5358 5.9944 11.3356 5.41667 10 5.41667C7.47274 5.41667 5.41669 7.47272 5.41669 9.99999C5.41669 12.5273 7.47274 14.5833 10 14.5833C11.592 14.5833 12.9957 13.7666 13.8177 12.531C14.4365 13.5652 15.5863 14.2467 16.895 14.159C18.6647 14.0405 20 12.4892 20 10.7157V9.99999C20 4.10944 14.8801 -0.608058 8.85684 0.0638948ZM10 12.9167C8.39192 12.9167 7.08333 11.6081 7.08333 9.99999C7.08333 8.3919 8.39192 7.08331 10 7.08331C11.6081 7.08331 12.9167 8.3919 12.9167 9.99999C12.9167 11.6081 11.6081 12.9167 10 12.9167Z" fill="#333333"/>
</svg>
